<?xml version="1.0" ?><svg data-name="Layer 1" id="Layer_1" viewBox="0 0 256 256" xmlns="http://www.w3.org/2000/svg"><defs><style>.cls-1{fill:#fd0;}.cls-2{fill:#40bdff;}.cls-3{fill:#2197f7;}.cls-4{fill:#efc803;}.cls-5{fill:#effafe;}.cls-6{fill:#e4ebed;}.cls-7{fill:#263238;}</style></defs><title/><circle class="cls-1" cx="63.96" cy="222.04" r="6.96"/><circle class="cls-1" cx="63.96" cy="158.89" r="6.96"/><circle class="cls-2" cx="63.96" cy="190.46" r="6.96"/><circle class="cls-2" cx="63.96" cy="127.32" r="6.96"/><path class="cls-3" d="M64,120.36a6.93,6.93,0,0,0-2,.3A7,7,0,0,1,62,134a7,7,0,1,0,2-13.63Z"/><path class="cls-3" d="M64,183.5a6.93,6.93,0,0,0-2,.3,7,7,0,0,1,0,13.33,7,7,0,1,0,2-13.63Z"/><circle class="cls-1" cx="63.96" cy="95.74" r="6.96"/><path class="cls-4" d="M64,88.78a6.93,6.93,0,0,0-2,.3,7,7,0,0,1,0,13.33,7,7,0,1,0,2-13.63Z"/><path class="cls-4" d="M64,151.93a6.93,6.93,0,0,0-2,.3,7,7,0,0,1,0,13.33,7,7,0,1,0,2-13.63Z"/><path class="cls-4" d="M64,215.08a6.93,6.93,0,0,0-2,.3,7,7,0,0,1,0,13.33,7,7,0,1,0,2-13.63Z"/><circle class="cls-2" cx="63.96" cy="64.17" r="6.96"/><path class="cls-3" d="M64,57.21a6.93,6.93,0,0,0-2,.3,7,7,0,0,1,0,13.33,7,7,0,1,0,2-13.63Z"/><polygon class="cls-5" points="198 14.83 198 28 211.16 28 198 14.83"/><path class="cls-5" d="M55,244H206a8,8,0,0,0,8-8V32H196a2,2,0,0,1-2-2V12H55a8,8,0,0,0-8,8V236A8,8,0,0,0,55,244ZM89.7,25a2,2,0,0,1,2-2H164.3a2,2,0,0,1,0,4H91.7A2,2,0,0,1,89.7,25Zm90.45,17H75.85a2,2,0,0,1,0-4h104.3a2,2,0,0,1,0,4ZM82.92,220H201a2,2,0,0,1,0,4H82.92a2,2,0,0,1,0-4ZM201,192.46H82.92a2,2,0,1,1,0-4H201a2,2,0,0,1,0,4Zm0-31.57H82.92a2,2,0,0,1,0-4H201a2,2,0,0,1,0,4Zm0-31.57H82.92a2,2,0,0,1,0-4H201a2,2,0,1,1,0,4Zm0-31.57H82.92a2,2,0,0,1,0-4H201a2,2,0,0,1,0,4Zm0-31.57H82.92a2,2,0,0,1,0-4H201a2,2,0,0,1,0,4ZM64,211.08a11,11,0,1,1-11,11A11,11,0,0,1,64,211.08Zm0-31.57a11,11,0,1,1-11,11A11,11,0,0,1,64,179.5Zm0-31.57a11,11,0,1,1-11,11A11,11,0,0,1,64,147.93Zm0-31.57a11,11,0,1,1-11,11A11,11,0,0,1,64,116.36Zm0-31.57a11,11,0,1,1-11,11A11,11,0,0,1,64,84.78Zm0-9.65a11,11,0,1,1,11-11A11,11,0,0,1,64,75.13Z"/><path class="cls-6" d="M209,32V236a8,8,0,0,1-8,8h5a8,8,0,0,0,8-8V32Z"/><path class="cls-7" d="M50,248.5H206A12.51,12.51,0,0,0,218.49,236V30a2.65,2.65,0,0,0-.73-1.77l-20-20-.06,0A2.56,2.56,0,0,0,196,7.5H50A12.51,12.51,0,0,0,37.5,20V236A12.51,12.51,0,0,0,50,248.5ZM198.5,16,210,27.5H198.5Zm-156,4A7.51,7.51,0,0,1,50,12.5H193.5V30a2.5,2.5,0,0,0,2.5,2.5h17.49V236A7.51,7.51,0,0,1,206,243.5H50A7.51,7.51,0,0,1,42.5,236Z"/><path class="cls-7" d="M91.7,27.5H164.3a2.5,2.5,0,0,0,0-5H91.7a2.5,2.5,0,0,0,0,5Z"/><path class="cls-7" d="M75.85,42.5h104.3a2.5,2.5,0,0,0,0-5H75.85a2.5,2.5,0,0,0,0,5Z"/><path class="cls-7" d="M64,201.93A11.46,11.46,0,1,0,52.5,190.46,11.47,11.47,0,0,0,64,201.93ZM64,184a6.46,6.46,0,1,1-6.46,6.46A6.47,6.47,0,0,1,64,184Z"/><path class="cls-7" d="M201,188H82.92a2.5,2.5,0,1,0,0,5H201a2.5,2.5,0,0,0,0-5Z"/><path class="cls-7" d="M64,233.5A11.46,11.46,0,1,0,52.5,222,11.47,11.47,0,0,0,64,233.5Zm0-17.92A6.46,6.46,0,1,1,57.5,222,6.47,6.47,0,0,1,64,215.58Z"/><path class="cls-7" d="M201,219.54H82.92a2.5,2.5,0,0,0,0,5H201a2.5,2.5,0,0,0,0-5Z"/><path class="cls-7" d="M64,170.35A11.46,11.46,0,1,0,52.5,158.89,11.47,11.47,0,0,0,64,170.35Zm0-17.92a6.46,6.46,0,1,1-6.46,6.46A6.47,6.47,0,0,1,64,152.43Z"/><path class="cls-7" d="M201,156.39H82.92a2.5,2.5,0,0,0,0,5H201a2.5,2.5,0,0,0,0-5Z"/><path class="cls-7" d="M64,138.78A11.46,11.46,0,1,0,52.5,127.32,11.47,11.47,0,0,0,64,138.78Zm0-17.92a6.46,6.46,0,1,1-6.46,6.46A6.47,6.47,0,0,1,64,120.86Z"/><path class="cls-7" d="M201,124.82H82.92a2.5,2.5,0,0,0,0,5H201a2.5,2.5,0,1,0,0-5Z"/><path class="cls-7" d="M64,89.28a6.46,6.46,0,1,1-6.46,6.46A6.47,6.47,0,0,1,64,89.28Zm0,17.92A11.46,11.46,0,1,0,52.5,95.74,11.47,11.47,0,0,0,64,107.21Z"/><path class="cls-7" d="M201,93.24H82.92a2.5,2.5,0,0,0,0,5H201a2.5,2.5,0,0,0,0-5Z"/><path class="cls-7" d="M64,75.63A11.46,11.46,0,1,0,52.5,64.17,11.47,11.47,0,0,0,64,75.63Zm0-17.92a6.46,6.46,0,1,1-6.46,6.46A6.47,6.47,0,0,1,64,57.71Z"/><path class="cls-7" d="M80.42,64.17a2.5,2.5,0,0,0,2.5,2.5H201a2.5,2.5,0,0,0,0-5H82.92A2.5,2.5,0,0,0,80.42,64.17Z"/><path class="cls-1" d="M29,91.24H25v-4a1,1,0,0,0-2,0v4H19a1,1,0,0,0,0,2h4v4a1,1,0,0,0,2,0v-4h4a1,1,0,0,0,0-2Z"/><path class="cls-2" d="M239,113h-4v-4a1,1,0,0,0-2,0v4h-4a1,1,0,0,0,0,2h4v4a1,1,0,0,0,2,0v-4h4a1,1,0,0,0,0-2Z"/><path class="cls-2" d="M239,29h-4V25a1,1,0,0,0-2,0v4h-4a1,1,0,0,0,0,2h4v4a1,1,0,0,0,2,0V31h4a1,1,0,0,0,0-2Z"/><path class="cls-2" d="M24.19,28a6,6,0,1,1,6-6A6,6,0,0,1,24.19,28Zm0-10a4,4,0,1,0,4,4A4,4,0,0,0,24.19,18Z"/><path class="cls-1" d="M20,157.93a6,6,0,1,1,6-6A6,6,0,0,1,20,157.93Zm0-10a4,4,0,1,0,4,4A4,4,0,0,0,20,147.93Z"/><path class="cls-1" d="M236,78.67a6,6,0,1,1,6-6A6,6,0,0,1,236,78.67Zm0-10a4,4,0,1,0,4,4A4,4,0,0,0,236,68.67Z"/><path class="cls-2" d="M239,188.5h-2.59l1.83-1.83a1,1,0,0,0-1.41-1.41L235,187.09V184.5a1,1,0,1,0-2,0v2.59l-1.83-1.83a1,1,0,0,0-1.41,1.41l1.83,1.83H229a1,1,0,0,0,0,2h2.59l-1.83,1.83a1,1,0,0,0,1.41,1.41l1.83-1.83v2.59a1,1,0,0,0,2,0v-2.59l1.83,1.83a1,1,0,0,0,1.41-1.41l-1.83-1.83H239a1,1,0,0,0,0-2Z"/><path class="cls-2" d="M29,221H26.41l1.83-1.83a1,1,0,0,0-1.41-1.41L25,219.62V217a1,1,0,0,0-2,0v2.59l-1.83-1.83a1,1,0,0,0-1.41,1.41L21.59,221H19a1,1,0,0,0,0,2h2.59l-1.83,1.83a1,1,0,0,0,1.41,1.41L23,224.45V227a1,1,0,0,0,2,0v-2.59l1.83,1.83a1,1,0,0,0,1.41-1.41L26.41,223H29a1,1,0,0,0,0-2Z"/></svg>